Motion_mu03
version=1
nRows=6
nColumns=43
inDegrees=yes
endheader
time	pelvis_tilt	pelvis_list	pelvis_rotation	pelvis_tx	pelvis_ty	pelvis_tz	hip_flexion_r	hip_adduction_r	hip_rotation_r	knee_angle_r	ankle_angle_r	subtalar_angle_r	mtp_angle_r	hip_flexion_l	hip_adduction_l	hip_rotation_l	knee_angle_l	ankle_angle_l	subtalar_angle_l	mtp_angle_l	lumbar_extension	lumbar_bending	lumbar_rotation	neck_flexion	neck_lateral_bending	neck_rotation	arm_flex_r	arm_add_r	arm_rot_r	elbow_flex_r	pro_sup_r	wrist_flex_r	wrist_dev_r	hand_finger_flex_r	arm_flex_l	arm_add_l	arm_rot_l	elbow_flex_l	pro_sup_l	wrist_flex_l	wrist_dev_l	hand_finger_flex_l
      1.83500000	     -3.62512335	    -49.74066456	    -84.33982737	      0.01901189	      1.56856226	      1.02915984	     37.88254962	    -12.55945269	     -7.13921178	    -82.24916165	     -7.44598638	     -8.18791258	    -15.39850289	     36.83706383	     -5.57729829	      5.06026237	    -88.46651107	     29.66440378	      4.67587642	    -19.88096269	    -20.11925824	      2.42066970	      8.57620874	    -39.05678433	      4.56129693	     -8.14784911	   -205.90886490	   -150.12434105	   -220.22561282	    129.24046712	    142.39759155	     13.26693037	     -2.31774863	     64.91443592	   -161.81247736	    201.12048903	   -167.33386190	    114.27052002	    162.66028628	     -5.80665507	     10.93578999	     90.00021046
      1.83750000	     -3.66360186	    -49.36296871	    -84.28193784	      0.01878130	      1.57216963	      1.02879273	     37.69689859	    -12.42458165	     -7.25545798	    -81.44112547	     -8.10009221	     -8.53061026	    -15.52611736	     36.84436101	     -5.60232818	      5.07017101	    -87.90632463	     29.61541330	      4.68888685	    -19.93059646	    -20.32573499	      2.58551987	      8.07825272	    -38.74913786	      3.81008006	     -8.03492170	   -206.16166687	   -150.02597776	   -219.79742533	    129.73835819	    142.44125368	     13.55052565	     -2.22848259	     65.02790617	   -163.12945724	    201.56051314	   -168.28002578	    115.38944779	    162.74309040	     -5.96526884	     10.92305333	     90.00021046
      1.84000000	     -3.68442137	    -48.86289345	    -84.17568417	      0.01853956	      1.57562016	      1.02852575	     37.65471211	    -12.32502618	     -7.39163236	    -80.64994492	     -8.70243330	     -9.00732879	    -15.66663648	     36.99494731	     -5.58686117	      5.10262505	    -87.34914570	     29.56040830	      4.70079195	    -19.98649282	    -20.39858473	      2.73883590	      7.43948676	    -38.54633965	      3.01200536	     -7.76303749	   -206.27560218	   -149.90240181	   -219.18634039	    130.18947769	    142.59453379	     13.86105930	     -2.08872972	     65.17474713	   -164.58002396	    202.02050550	   -169.34459358	    116.53713232	    162.85227722	     -6.10895321	     10.88285570	     90.00021046
      1.84250000	     -3.68774476	    -48.39933643	    -84.08243781	      0.01824676	      1.57901991	      1.02828054	     37.58741033	    -12.21043240	     -7.48044083	    -79.87121376	     -9.21849610	     -9.30924595	    -15.79498389	     37.10773045	     -5.59448284	      5.08968836	    -86.79225164	     29.47680500	      4.69955669	    -20.03650143	    -20.51152900	      2.84973157	      6.94379964	    -38.37032802	      2.41944627	     -7.53245101	   -206.54044663	   -149.82800906	   -218.74830938	    130.64421793	    142.72380047	     14.07855391	     -1.98684004	     65.31168993	   -165.87417009	    202.41589706	   -170.27889429	    117.59380955	    162.93617156	     -6.20829074	     10.82534499	     90.00021046
      1.84500000	     -3.63303560	    -47.95783858	    -83.94252775	      0.01799207	      1.58239273	      1.02803915	     37.45047245	    -12.10533282	     -7.50007619	    -79.07603277	     -9.28778012	     -9.30141605	    -15.81252809	     37.16525414	     -5.57885471	      5.04320558	    -86.17365934	     29.42729448	      4.72156706	    -20.04610260	    -20.60683957	      2.86701822	      6.84811913	    -38.50593850	      2.44359892	     -7.51377686	   -207.27382216	   -150.01441085	   -218.88468384	    131.13109515	    142.69353171	     14.09737697	     -1.98283225	     65.34422598	   -166.62187782	    202.68825308	   -170.48604960	    118.20359968	    162.92302612	     -6.26633948	     10.81748705	     90.00021046
      1.84750000	     -3.66086466	    -47.47296032	    -83.87748642	      0.01762681	      1.58578461	      1.02792768	     37.45759535	    -11.95940029	     -7.59208141	    -78.32409058	    -10.20799553	     -9.99304726	    -16.05817644	     37.30853668	     -5.59942993	      5.04122484	    -85.65860165	     29.30763473	      4.64452473	    -20.11196088	    -20.73597959	      3.02354610	      5.96487189	    -38.23211619	      1.30754174	     -7.23897793	   -207.05570662	   -149.75553946	   -217.89461138	    131.52178728	    143.02121849	     14.60372733	     -1.80499513	     65.71596720	   -168.44934667	    203.12641622	   -172.12288033	    119.61159850	    163.08734503	     -6.25532741	     10.75879539	     90.00021046
